<svg width="100px" height="100px" viewBox="0 0 100 100" version="1.1" xmlns="http://www.w3.org/2000/svg" xmlns:xlink="http://www.w3.org/1999/xlink" xmlns:sketch="http://www.bohemiancoding.com/sketch/ns"><title>sun</title><desc>Created with Sketch.</desc><defs></defs><g id="Page-1" stroke="none" stroke-width="1" fill="none" fill-rule="evenodd" sketch:type="MSPage"><g id="Artboard" sketch:type="MSArtboardGroup"><g id="sun" sketch:type="MSLayerGroup"><path d="M50.001,76.927 C64.85,76.927 76.924,64.845 76.924,50 C76.924,35.154 64.85,23.075 50.001,23.075 C35.151,23.074 23.076,35.151 23.076,50 C23.076,64.849 35.151,76.927 50.001,76.927 L50.001,76.927 Z M50.001,26.778 C62.79,26.778 73.221,37.213 73.221,50 C73.221,62.788 62.789,73.222 50.001,73.222 C37.21,73.222 26.779,62.787 26.779,50 C26.779,37.212 37.211,26.778 50.001,26.778 L50.001,26.778 Z" id="Shape" sketch:type="MSShapeGroup"></path><path d="M50.001,73.222 C62.79,73.222 73.221,62.787 73.221,50 C73.221,37.213 62.789,26.778 50.001,26.778 C37.211,26.778 26.779,37.212 26.779,50 C26.779,62.787 37.21,73.222 50.001,73.222 L50.001,73.222 Z" id="Shape" fill="#FFFFC9" sketch:type="MSShapeGroup"></path><path d="M11.863,57.724 L0,65.452 L14.378,65.076 C22.272,64.872 26.566,70.491 23.915,77.576 L19.098,90.452 L30.498,82.108 C36.759,77.531 43.703,79.68 45.94,86.885 L50.001,100 L54.061,86.885 C56.296,79.68 63.241,77.531 69.502,82.108 L80.9,90.452 L76.083,77.576 C73.432,70.491 77.726,64.872 85.621,65.076 L99.998,65.452 L88.135,57.723 C81.622,53.475 81.622,46.527 88.138,42.281 L100,34.55 L85.622,34.927 C77.726,35.132 73.433,29.511 76.086,22.427 L80.905,9.55 L69.505,17.896 C63.244,22.47 56.3,20.321 54.064,13.117 L50.001,0 L45.94,13.115 C43.703,20.319 36.759,22.468 30.497,17.894 L19.098,9.549 L23.915,22.426 C26.567,29.509 22.272,35.129 14.378,34.926 L0,34.55 L11.862,42.281 C18.377,46.527 18.377,53.476 11.863,57.724 L11.863,57.724 Z M50.001,23.074 C64.85,23.074 76.924,35.153 76.924,49.999 C76.924,64.844 64.85,76.926 50.001,76.926 C35.151,76.927 23.076,64.849 23.076,50 C23.076,35.151 35.151,23.074 50.001,23.074 L50.001,23.074 Z" id="Shape" fill="#FFFFC9" sketch:type="MSShapeGroup"></path></g></g></g></svg>