<svg width="100px" height="101px" viewBox="0 0 100 101" version="1.1" xmlns="http://www.w3.org/2000/svg" xmlns:xlink="http://www.w3.org/1999/xlink" xmlns:sketch="http://www.bohemiancoding.com/sketch/ns">
  <title>Artboard</title>
  <desc>Created with Sketch.</desc>
  <defs></defs>
  <g id="Page-1" stroke="none" stroke-width="1" fill="none" fill-rule="evenodd" sketch:type="MSPage">
    <g id="Artboard" sketch:type="MSArtboardGroup" transform="translate(0.000499, 0.000000)" fill="#FFFFC9">
      <path d="M45.1315012,97.851 C51.9675012,95.264 57.4325012,90.638 61.1685012,84.936 C47.2735012,89.682 32.0245012,82.374 27.0665012,68.515 C22.2195012,54.955 28.9805012,40.007 42.1495012,34.555 C35.5725012,32.74 28.4025012,32.877 21.5585012,35.462 C4.37450124,41.956 -4.34249876,61.263 2.14850124,78.441 C8.63950124,95.622 27.9485012,104.347 45.1315012,97.851 L45.1315012,97.851 L45.1315012,97.851 Z" id="Shape" sketch:type="MSShapeGroup"></path>
      <path d="M78.9325012,81.972 L78.9355012,81.972 L79.0915012,82.343 L79.2495012,82.715 C79.9085012,84.26 79.7135012,86.681 78.8115012,88.101 L78.5995012,88.44 L76.7465012,91.359 L79.7875012,91.087 L79.7905012,91.087 L80.1935012,91.052 L80.5945012,91.014 C82.2645012,90.867 84.5065012,91.805 85.5765012,93.094 L85.8355012,93.406 L86.0965012,93.717 L88.0415012,96.07 L88.8125012,92.701 L88.9035012,92.307 C89.2795012,90.673 90.8635012,88.828 92.4215012,88.208 L92.7955012,88.057 L93.1685012,87.912 L93.1715012,87.908 L96.0075012,86.789 L93.3895012,85.217 L93.0435012,85.007 L92.6935012,84.801 C91.2545012,83.939 89.9955012,81.864 89.8845012,80.186 L89.8735012,80.02 L89.8355012,79.383 L89.8355012,79.38 L89.6425012,76.333 L87.3425012,78.337 L87.3425012,78.339 L86.8595012,78.76 L86.7315012,78.872 C85.4665012,79.976 83.1035012,80.536 81.4755012,80.12 L80.6945012,79.923 L77.7345012,79.167 L78.9325012,81.972 L78.9325012,81.972 Z" id="Shape" sketch:type="MSShapeGroup"></path>
      <path d="M83.8435012,11.312 L84.2085012,11.485 L84.5735012,11.659 C86.0895012,12.381 87.5435012,14.327 87.8105012,15.985 L87.8725012,16.382 L88.4195012,19.795 L90.5175012,17.581 L90.7955012,17.288 L91.0695012,16.993 C92.2235012,15.775 94.5245012,14.989 96.1845012,15.25 L96.5815012,15.315 L96.9805012,15.376 L96.9845012,15.376 L99.9975012,15.851 L98.3465012,12.815 L98.1555012,12.46 C97.3525012,10.984 97.3205012,8.555 98.0795012,7.056 L98.2615012,6.695 L98.4475012,6.337 L99.8295012,3.617 L96.8315012,4.174 L96.8275012,4.174 L96.4285012,4.248 L96.0335012,4.322 C94.3845012,4.628 92.0615012,3.909 90.8755012,2.722 L90.7525012,2.603 L90.3045012,2.155 L90.3015012,2.153 L88.1405012,0 L87.7465012,3.022 L87.7465012,3.025 L87.6625012,3.657 L87.6385012,3.825 C87.4205012,5.49 86.0215012,7.475 84.5275012,8.242 L83.8055012,8.606 L83.8055012,8.608 L81.0895012,10 L83.8435012,11.31 L83.8435012,11.312 L83.8435012,11.312 Z" id="Shape" sketch:type="MSShapeGroup"></path>
      <path d="M54.9225012,45.929 L55.3425012,46.339 C57.0745012,48.028 58.1595012,51.366 57.7475012,53.75 L57.6495012,54.326 L56.8065012,59.236 L60.7045012,57.189 L61.2155012,56.918 L61.7345012,56.648 C63.8795012,55.518 67.3855012,55.518 69.5295012,56.648 L70.0435012,56.918 L70.5555012,57.189 L70.5585012,57.189 L74.4555012,59.236 L73.6125012,54.326 L73.5145012,53.75 C73.1005012,51.366 74.1855012,48.028 75.9195012,46.339 L76.3375012,45.929 L76.7575012,45.526 L79.9105012,42.452 L75.5545012,41.819 L75.5505012,41.819 L74.3975012,41.653 C72.0025012,41.3 69.1685012,39.239 68.0945012,37.069 L67.9865012,36.852 L67.5815012,36.028 L67.5815012,36.024 L65.6325012,32.078 L63.6825012,36.024 L63.6825012,36.028 L63.2785012,36.852 L63.1705012,37.069 C62.0995012,39.239 59.2605012,41.3 56.8655012,41.653 L56.2865012,41.736 L55.7115012,41.819 L51.3535012,42.452 L54.5035012,45.526 L54.9225012,45.929 L54.9225012,45.929 Z" id="Shape" sketch:type="MSShapeGroup"></path>
      <path d="M8.84350124,16.678 L6.99450124,19.597 L10.0345012,19.325 L10.4395012,19.29 L10.8395012,19.253 C12.5115012,19.105 14.7535012,20.043 15.8245012,21.333 L16.0805012,21.644 L16.3385012,21.955 L16.3415012,21.955 L18.2875012,24.307 L19.0575012,20.937 L19.1485012,20.543 C19.5215012,18.91 21.1045012,17.063 22.6635012,16.445 L23.0435012,16.293 L23.4165012,16.147 L23.4165012,16.146 L26.2575012,15.023 L23.6375012,13.455 L23.2905012,13.245 L22.9435012,13.04 C21.5025012,12.177 20.2425012,10.103 20.1325012,8.424 L20.1215012,8.258 L20.0825012,7.622 L20.0825012,7.62 L19.8855012,4.576 L17.5895012,6.579 L17.5865012,6.581 L17.1045012,7 L16.9785012,7.11 C15.7155012,8.214 13.3505012,8.776 11.7235012,8.359 L10.9415012,8.16 L7.98250124,7.404 L9.18050124,10.208 L9.18050124,10.21 L9.33950124,10.58 L9.49850124,10.953 C10.1565012,12.497 9.95750124,14.92 9.06050124,16.339 L8.84350124,16.678 L8.84350124,16.678 Z" id="Shape" sketch:type="MSShapeGroup"></path>
    </g>
  </g>
</svg>