<?xml version="1.0" encoding="UTF-8" standalone="no"?>
<!DOCTYPE svg PUBLIC "-//W3C//DTD SVG 1.1//EN" "https://www.w3.org/Graphics/SVG/1.1/DTD/svg11.dtd">
<svg version="1.1" xmlns="https://www.w3.org/2000/svg" xmlns:xlink="https://www.w3.org/1999/xlink" preserveAspectRatio="xMidYMid meet" viewBox="0 0 640 640" width="640" height="640"><defs><path d="M98.75 487.5C98.75 535.75 138 575 186.25 575C234.5 575 273.75 535.75 273.75 487.5C273.75 439.25 234.5 400 186.25 400C138 400 98.75 439.25 98.75 487.5ZM123.75 487.5C123.75 453.04 151.79 425 186.25 425C220.71 425 248.75 453.04 248.75 487.5C248.75 521.96 220.71 550 186.25 550C151.79 550 123.75 521.96 123.75 487.5Z" id="afmyXWCYK"></path><path d="M258.75 353.31C258.75 325.23 258.75 100.58 258.75 72.5C258.75 32.52 226.23 0 186.25 0C146.27 0 113.75 32.52 113.75 72.5C113.75 100.58 113.75 325.23 113.75 353.31C91.17 365.53 72 383.25 58.01 404.95C42.14 429.55 33.75 458.1 33.75 487.5C33.75 571.59 102.16 640 186.25 640C270.34 640 338.75 571.59 338.75 487.5C338.75 458.1 330.36 429.55 314.49 404.95C300.5 383.25 281.33 365.53 258.75 353.31ZM58.75 487.5C58.75 438.53 87.35 393.3 131.61 372.27C135.97 370.2 138.75 365.81 138.75 360.98C138.75 332.13 138.75 101.35 138.75 72.5C138.75 46.31 160.06 25 186.25 25C212.44 25 233.75 46.31 233.75 72.5C233.75 101.35 233.75 332.13 233.75 360.98C233.75 365.81 236.53 370.2 240.89 372.27C285.15 393.3 313.75 438.53 313.75 487.5C313.75 557.8 256.55 615 186.25 615C115.95 615 58.75 557.8 58.75 487.5Z" id="cLDzukepR"></path><path d="M186.25 53.75C182.96 53.75 179.74 55.09 177.41 57.41C175.09 59.74 173.75 62.96 173.75 66.25C173.75 69.54 175.09 72.76 177.41 75.09C179.74 77.41 182.96 78.75 186.25 78.75C189.54 78.75 192.76 77.41 195.09 75.09C197.41 72.76 198.75 69.54 198.75 66.25C198.75 62.96 197.41 59.74 195.09 57.41C192.76 55.09 189.54 53.75 186.25 53.75Z" id="l3tBF1k8Mq"></path><path d="M173.75 120.42C173.75 143.84 173.75 331.27 173.75 354.7C173.75 361.6 179.35 367.2 186.25 367.2C193.15 367.2 198.75 361.6 198.75 354.7C198.75 331.27 198.75 143.84 198.75 120.42C198.75 113.51 193.15 107.92 186.25 107.92C179.35 107.92 173.75 113.51 173.75 120.42Z" id="ab8C3XJUm"></path><path d="M294.58 50C287.68 50 282.08 55.6 282.08 62.5C282.08 69.4 287.68 75 294.58 75C296.83 75 314.83 75 317.08 75C323.99 75 329.58 69.4 329.58 62.5C329.58 55.6 323.99 50 317.08 50C312.58 50 296.83 50 294.58 50Z" id="d37yOdAzmU"></path><path d="M294.58 129.94C287.68 129.94 282.08 135.54 282.08 142.44C282.08 149.35 287.68 154.94 294.58 154.94C296.83 154.94 314.83 154.94 317.08 154.94C323.99 154.94 329.58 149.35 329.58 142.44C329.58 135.54 323.99 129.94 317.08 129.94C312.58 129.94 296.83 129.94 294.58 129.94Z" id="h5SmkM2AYK"></path><path d="M294.58 209.88C287.68 209.88 282.08 215.48 282.08 222.38C282.08 229.29 287.68 234.88 294.58 234.88C296.83 234.88 314.83 234.88 317.08 234.88C323.99 234.88 329.58 229.29 329.58 222.38C329.58 215.48 323.99 209.88 317.08 209.88C312.58 209.88 296.83 209.88 294.58 209.88Z" id="aNdUm24Db"></path><path d="M294.58 289.83C287.68 289.83 282.08 295.42 282.08 302.33C282.08 309.23 287.68 314.83 294.58 314.83C296.83 314.83 314.83 314.83 317.08 314.83C323.99 314.83 329.58 309.23 329.58 302.33C329.58 295.42 323.99 289.83 317.08 289.83C312.58 289.83 296.83 289.83 294.58 289.83Z" id="aQtSfJaPI"></path><path d="M55.42 50C48.51 50 42.92 55.6 42.92 62.5C42.92 69.4 48.51 75 55.42 75C57.67 75 75.67 75 77.92 75C84.82 75 90.42 69.4 90.42 62.5C90.42 55.6 84.82 50 77.92 50C73.42 50 57.67 50 55.42 50Z" id="bjiXOfNoE"></path><path d="M55.42 129.94C48.51 129.94 42.92 135.54 42.92 142.44C42.92 149.35 48.51 154.94 55.42 154.94C57.67 154.94 75.67 154.94 77.92 154.94C84.82 154.94 90.42 149.35 90.42 142.44C90.42 135.54 84.82 129.94 77.92 129.94C73.42 129.94 57.67 129.94 55.42 129.94Z" id="amfFOWsv9"></path><path d="M55.42 209.88C48.51 209.88 42.92 215.48 42.92 222.38C42.92 229.29 48.51 234.88 55.42 234.88C57.67 234.88 75.67 234.88 77.92 234.88C84.82 234.88 90.42 229.29 90.42 222.38C90.42 215.48 84.82 209.88 77.92 209.88C73.42 209.88 57.67 209.88 55.42 209.88Z" id="d2KyUyMjIG"></path><path d="M55.42 289.83C48.51 289.83 42.92 295.42 42.92 302.33C42.92 309.23 48.51 314.83 55.42 314.83C57.67 314.83 75.67 314.83 77.92 314.83C84.82 314.83 90.42 309.23 90.42 302.33C90.42 295.42 84.82 289.83 77.92 289.83C73.42 289.83 57.67 289.83 55.42 289.83Z" id="a4NXqiHWn"></path><path d="M525.76 380C522.47 380 519.25 381.34 516.92 383.66C514.59 385.99 513.26 389.21 513.26 392.5C513.26 395.79 514.59 399.01 516.92 401.34C519.25 403.66 522.47 405 525.76 405C529.05 405 532.27 403.66 534.6 401.34C536.92 399.01 538.26 395.79 538.26 392.5C538.26 389.21 536.93 385.99 534.6 383.66C532.27 381.34 529.05 380 525.76 380Z" id="a4N7qzSod"></path><path d="M538.26 147.5C538.26 81.79 538.26 45.29 538.26 37.99C538.26 17.31 521.44 0.49 500.76 0.49C480.08 0.49 463.26 17.31 463.26 37.99C463.26 45.29 463.26 81.79 463.26 147.5C454.55 147.5 449.72 147.5 448.75 147.5C419.8 147.5 396.25 171.05 396.25 200C396.25 228.95 419.8 252.5 448.75 252.5C449.72 252.5 454.55 252.5 463.26 252.5C463.26 462.5 463.26 579.17 463.26 602.5C463.26 623.18 480.08 640 500.76 640C521.44 640 538.26 623.18 538.26 602.5C538.26 586.88 538.26 461.88 538.26 446.25C538.26 439.35 532.66 433.75 525.76 433.75C518.86 433.75 513.26 439.35 513.26 446.25C513.26 461.88 513.26 586.88 513.26 602.5C513.26 609.39 507.65 615 500.76 615C493.87 615 488.26 609.39 488.26 602.5C488.26 579.17 488.26 462.5 488.26 252.5L513.26 252.5C513.26 307.25 513.26 337.67 513.26 343.75C513.26 350.65 518.86 356.25 525.76 356.25C532.66 356.25 538.26 350.65 538.26 343.75C538.26 337.67 538.26 307.25 538.26 252.5C547.55 252.5 552.72 252.5 553.75 252.5C582.7 252.5 606.25 228.95 606.25 200C606.25 171.05 582.7 147.5 553.75 147.5C551.68 147.5 546.52 147.5 538.26 147.5ZM500.76 25.49C507.65 25.49 513.26 31.1 513.26 37.99C513.26 45.29 513.26 81.79 513.26 147.5L488.26 147.5L488.26 37.99C492 29.66 496.17 25.49 500.76 25.49ZM448.75 227.5C433.59 227.5 421.25 215.16 421.25 200C421.25 184.84 433.59 172.5 448.75 172.5C459.25 172.5 543.25 172.5 553.75 172.5C568.91 172.5 581.25 184.84 581.25 200C581.25 215.16 568.91 227.5 553.75 227.5C532.75 227.5 459.25 227.5 448.75 227.5Z" id="fPrzzbFFY"></path></defs><g><g><g><use xlink:href="#afmyXWCYK" opacity="1" fill="#ffffff" fill-opacity="1"></use><g><use xlink:href="#afmyXWCYK" opacity="1" fill-opacity="0" stroke="#000000" stroke-width="1" stroke-opacity="0"></use></g></g><g><use xlink:href="#cLDzukepR" opacity="1" fill="#ffffff" fill-opacity="1"></use><g><use xlink:href="#cLDzukepR" opacity="1" fill-opacity="0" stroke="#000000" stroke-width="1" stroke-opacity="0"></use></g></g><g><use xlink:href="#l3tBF1k8Mq" opacity="1" fill="#ffffff" fill-opacity="1"></use><g><use xlink:href="#l3tBF1k8Mq" opacity="1" fill-opacity="0" stroke="#000000" stroke-width="1" stroke-opacity="0"></use></g></g><g><use xlink:href="#ab8C3XJUm" opacity="1" fill="#ffffff" fill-opacity="1"></use><g><use xlink:href="#ab8C3XJUm" opacity="1" fill-opacity="0" stroke="#000000" stroke-width="1" stroke-opacity="0"></use></g></g><g><use xlink:href="#d37yOdAzmU" opacity="1" fill="#ffffff" fill-opacity="1"></use><g><use xlink:href="#d37yOdAzmU" opacity="1" fill-opacity="0" stroke="#000000" stroke-width="1" stroke-opacity="0"></use></g></g><g><use xlink:href="#h5SmkM2AYK" opacity="1" fill="#ffffff" fill-opacity="1"></use><g><use xlink:href="#h5SmkM2AYK" opacity="1" fill-opacity="0" stroke="#000000" stroke-width="1" stroke-opacity="0"></use></g></g><g><use xlink:href="#aNdUm24Db" opacity="1" fill="#ffffff" fill-opacity="1"></use><g><use xlink:href="#aNdUm24Db" opacity="1" fill-opacity="0" stroke="#000000" stroke-width="1" stroke-opacity="0"></use></g></g><g><use xlink:href="#aQtSfJaPI" opacity="1" fill="#ffffff" fill-opacity="1"></use><g><use xlink:href="#aQtSfJaPI" opacity="1" fill-opacity="0" stroke="#000000" stroke-width="1" stroke-opacity="0"></use></g></g><g><use xlink:href="#bjiXOfNoE" opacity="1" fill="#ffffff" fill-opacity="1"></use><g><use xlink:href="#bjiXOfNoE" opacity="1" fill-opacity="0" stroke="#000000" stroke-width="1" stroke-opacity="0"></use></g></g><g><use xlink:href="#amfFOWsv9" opacity="1" fill="#ffffff" fill-opacity="1"></use><g><use xlink:href="#amfFOWsv9" opacity="1" fill-opacity="0" stroke="#000000" stroke-width="1" stroke-opacity="0"></use></g></g><g><use xlink:href="#d2KyUyMjIG" opacity="1" fill="#ffffff" fill-opacity="1"></use><g><use xlink:href="#d2KyUyMjIG" opacity="1" fill-opacity="0" stroke="#000000" stroke-width="1" stroke-opacity="0"></use></g></g><g><use xlink:href="#a4NXqiHWn" opacity="1" fill="#ffffff" fill-opacity="1"></use><g><use xlink:href="#a4NXqiHWn" opacity="1" fill-opacity="0" stroke="#000000" stroke-width="1" stroke-opacity="0"></use></g></g><g><use xlink:href="#a4N7qzSod" opacity="1" fill="#ffffff" fill-opacity="1"></use><g><use xlink:href="#a4N7qzSod" opacity="1" fill-opacity="0" stroke="#000000" stroke-width="1" stroke-opacity="0"></use></g></g><g><use xlink:href="#fPrzzbFFY" opacity="1" fill="#ffffff" fill-opacity="1"></use><g><use xlink:href="#fPrzzbFFY" opacity="1" fill-opacity="0" stroke="#000000" stroke-width="1" stroke-opacity="0"></use></g></g></g></g></svg>